# xmcd
#
# Track frame offsets:
#	150
#	17730
#	36755
#	60612
#	79845
#	97055
#	114275
#	131945
#	151100
#	172307
#	194557
#	216490
#	237887
#	260372
#	280892
#	301300
#	327382
#
# Disc length: 4669
#
# Revision: 6
# Processed by: cddbd v1.5.1PL0 Copyright (c) Steve Scherf et al.
# Submitted via: CDex 1.51
# Normalized: r3:TDELIM( - ),TSWAP
#
DISCID=f9123b11
DTITLE=Babyface - Love Melodies The Greatest Songbook - Babyface DISK1
DYEAR=2003
DGENRE=Pop
TTITLE0=BOYZ II MEN - I'll Make Love To You
TTITLE1=TLC - Diggin' On You
TTITLE2=JOHNNY GILL - My, My, My
TTITLE3=TONI BRAXTON - Breath Again (Radio Edit)
TTITLE4=BABYFACE - When Can I See You
TTITLE5=WHITNEY HOUSTON - I'm Your Baby Tonight
TTITLE6=BOBBY BROWN - Every Little Step
TTITLE7=PEBBLES - Girlfriend
TTITLE8=TEVIN CAMPBELL - Can We Talk
TTITLE9=PAULA ABDUL - Forever Your Girl
TTITLE10=AFTER 7 - 'Til You Do Me Right
TTITLE11=USHER - Bedtime
TTITLE12=LIONEL RICHIE - Ordinary Girl
TTITLE13=DIANA ROSS - Keep It Right There
TTITLE14=JON B FEATURING BABYFACE - Someone To Love
TTITLE15=KARYN WHITE - Superwoman
TTITLE16=BABYFACE - You Make Me Feel Brand New
EXTD=YEAR: 2003
EXTT0=
EXTT1=
EXTT2=
EXTT3=
EXTT4=
EXTT5=
EXTT6=
EXTT7=
EXTT8=
EXTT9=
EXTT10=
EXTT11=
EXTT12=
EXTT13=
EXTT14=
EXTT15=
EXTT16=
PLAYORDER=
